<?xml version="1.0" encoding="UTF-8" standalone="no"?>
<!-- Created with Inkscape (http://www.inkscape.org/) -->

<svg
   width="916.89087mm"
   height="660.25818mm"
   viewBox="0 0 916.89087 660.25818"
   version="1.1"
   id="svg5"
   xml:space="preserve"
   inkscape:version="1.2.1 (9c6d41e410, 2022-07-14)"
   sodipodi:docname="decorativeConceptMap.svg"
   xmlns:inkscape="http://www.inkscape.org/namespaces/inkscape"
   xmlns:sodipodi="http://sodipodi.sourceforge.net/DTD/sodipodi-0.dtd"
   xmlns="http://www.w3.org/2000/svg"
   xmlns:svg="http://www.w3.org/2000/svg"><sodipodi:namedview
     id="namedview7"
     pagecolor="#505050"
     bordercolor="#ffffff"
     borderopacity="1"
     inkscape:showpageshadow="0"
     inkscape:pageopacity="0"
     inkscape:pagecheckerboard="1"
     inkscape:deskcolor="#505050"
     inkscape:document-units="mm"
     showgrid="false"
     inkscape:zoom="0.11534396"
     inkscape:cx="1560.5498"
     inkscape:cy="1395.8251"
     inkscape:window-width="956"
     inkscape:window-height="1033"
     inkscape:window-x="0"
     inkscape:window-y="22"
     inkscape:window-maximized="1"
     inkscape:current-layer="layer1" /><defs
     id="defs2" /><g
     inkscape:label="Layer 1"
     inkscape:groupmode="layer"
     id="layer1"
     transform="translate(428.64953,216.00134)"><path
       style="fill:none;stroke:#8c52ff;stroke-width:8.46667;stroke-linecap:butt;stroke-linejoin:miter;stroke-dasharray:none;stroke-opacity:1"
       d="M 320.30327,-23.103197 95.052571,141.31878"
       id="path2562-0-0-2"
       sodipodi:nodetypes="cc" /><path
       style="fill:none;stroke:#8c52ff;stroke-width:8.46667;stroke-linecap:butt;stroke-linejoin:miter;stroke-dasharray:none;stroke-opacity:1"
       d="M 316.72782,-28.623824 312.71661,173.90732"
       id="path2562-0-0-2-6"
       sodipodi:nodetypes="cc" /><path
       style="fill:none;stroke:#8c52ff;stroke-width:8.46667;stroke-linecap:butt;stroke-linejoin:miter;stroke-dasharray:none;stroke-opacity:1"
       d="M 321.40901,-26.265591 278.09391,-182.09761"
       id="path2562-0-0-2-6-8"
       sodipodi:nodetypes="cc" /><path
       style="fill:none;stroke:#8c52ff;stroke-width:8.46667;stroke-linecap:butt;stroke-linejoin:miter;stroke-dasharray:none;stroke-opacity:1"
       d="M 317.59565,-12.998882 454.45939,142.7993"
       id="path2562-0-0-2-6-1"
       sodipodi:nodetypes="cc" /><path
       style="fill:none;stroke:#00c2cb;stroke-width:8.46667;stroke-linecap:butt;stroke-linejoin:miter;stroke-dasharray:none;stroke-opacity:1"
       d="M 94.933463,148.66363 -177.65056,-5.4239358"
       id="path2562"
       sodipodi:nodetypes="cc" /><path
       style="fill:none;stroke:#00c2cb;stroke-width:8.46667;stroke-linecap:butt;stroke-linejoin:miter;stroke-dasharray:none;stroke-opacity:1"
       d="M -174.97559,-4.7623751 -394.46213,-119.84679 m 157.58727,101.814794"
       id="path2562-0"
       sodipodi:nodetypes="cc" /><path
       style="fill:none;stroke:#00c2cb;stroke-width:8.46667;stroke-linecap:butt;stroke-linejoin:miter;stroke-dasharray:none;stroke-opacity:1"
       d="M -175.28602,-1.7545747 -259.46395,160.34588"
       id="path2562-0-9"
       sodipodi:nodetypes="cc" /><path
       style="fill:none;stroke:#00c2cb;stroke-width:8.46667;stroke-linecap:butt;stroke-linejoin:miter;stroke-dasharray:none;stroke-opacity:1"
       d="M -174.9129,-3.9008137 -352.52028,51.196214"
       id="path2562-0-3"
       sodipodi:nodetypes="cc" /><path
       style="fill:none;stroke:#ff6e35;stroke-width:8.46667;stroke-linecap:butt;stroke-linejoin:miter;stroke-dasharray:none;stroke-opacity:1"
       d="M -56.882561,353.50896 -223.03459,412.38733"
       id="path2562-0-0"
       sodipodi:nodetypes="cc" /><path
       style="fill:none;stroke:#ff6e35;stroke-width:8.46667;stroke-linecap:butt;stroke-linejoin:miter;stroke-dasharray:none;stroke-opacity:1"
       d="M 94.233803,152.76617 -55.557437,350.32835"
       id="path2562-0-0-6"
       sodipodi:nodetypes="cc" /><path
       style="fill:none;stroke:#00c2cb;stroke-width:8.46667;stroke-linecap:butt;stroke-linejoin:miter;stroke-dasharray:none;stroke-opacity:1"
       d="M -174.66444,-7.731937 -91.229315,-140.90181"
       id="path2562-0-6"
       sodipodi:nodetypes="cc" /><circle
       style="fill:#ffffff;fill-rule:evenodd;stroke-width:5.06992;stroke-linecap:round;stroke-linejoin:round"
       id="path2240"
       cx="96.321602"
       cy="144.09038"
       r="90.751274" /><circle
       style="fill:#8c52ff;fill-opacity:1;fill-rule:evenodd;stroke-width:5.06992;stroke-linecap:round;stroke-linejoin:round"
       id="path2240-6"
       cx="320.30008"
       cy="-24.554106"
       r="84.666664" /><circle
       style="fill:#ff6e35;fill-opacity:1;fill-rule:evenodd;stroke-width:5.06992;stroke-linecap:round;stroke-linejoin:round"
       id="path2240-6-7"
       cx="-54.678013"
       cy="350.40155"
       r="84.666664" /><circle
       style="fill:#00c2cb;fill-opacity:1;fill-rule:evenodd;stroke-width:5.06992;stroke-linecap:round;stroke-linejoin:round"
       id="path2240-6-7-5"
       cx="-175.94965"
       cy="-6.8451915"
       r="84.666664" /><circle
       style="fill:#00c2cb;fill-opacity:1;fill-rule:evenodd;stroke-width:6.1129;stroke-linecap:round;stroke-linejoin:round"
       id="path2240-6-7-5-3"
       cx="-90.359406"
       cy="-143.31442"
       r="33.866665" /><circle
       style="fill:#00c2cb;fill-opacity:1;fill-rule:evenodd;stroke-width:6.1129;stroke-linecap:round;stroke-linejoin:round"
       id="path2240-6-7-5-3-5"
       cx="-394.78287"
       cy="-123.42501"
       r="33.866665" /><circle
       style="fill:#00c2cb;fill-opacity:1;fill-rule:evenodd;stroke-width:6.1129;stroke-linecap:round;stroke-linejoin:round"
       id="path2240-6-7-5-3-5-6"
       cx="-351.0827"
       cy="49.182076"
       r="33.866665" /><circle
       style="fill:#00c2cb;fill-opacity:1;fill-rule:evenodd;stroke-width:6.1129;stroke-linecap:round;stroke-linejoin:round"
       id="path2240-6-7-5-3-5-6-2"
       cx="-259.89304"
       cy="158.82208"
       r="33.866665" /><circle
       style="fill:#ff6e35;fill-opacity:1;fill-rule:evenodd;stroke-width:6.1129;stroke-linecap:round;stroke-linejoin:round"
       id="path2240-6-7-5-3-5-6-2-9"
       cx="-221.52744"
       cy="410.3902"
       r="33.866665" /><circle
       style="fill:#8c52ff;fill-opacity:1;fill-rule:evenodd;stroke-width:6.1129;stroke-linecap:round;stroke-linejoin:round"
       id="path2240-6-7-5-3-5-6-2-9-1"
       r="33.89761"
       cy="167.71509"
       cx="313.71002" /><circle
       style="fill:#8c52ff;fill-opacity:1;fill-rule:evenodd;stroke-width:6.1129;stroke-linecap:round;stroke-linejoin:round"
       id="path2240-6-7-5-3-5-6-2-9-1-2"
       cx="454.37466"
       cy="141.71965"
       r="33.866665" /><circle
       style="fill:#8c52ff;fill-opacity:1;fill-rule:evenodd;stroke-width:6.1129;stroke-linecap:round;stroke-linejoin:round"
       id="path2240-6-7-5-3-5-6-2-9-1-7"
       cx="278.4606"
       cy="-182.13467"
       r="33.866665" /><g
       id="g2332"
       transform="matrix(0.26458333,0,0,0.26458333,31.099468,74.033455)"><g
         id="layer1-3"
         inkscape:label="Original"
         style="display:inline"><g
           id="g8"
           transform="matrix(0.95699151,0,0,0.95699151,32.349772,-11.959386)"><path
             d="m 159.52043,57.562035 c 14.77337,7.220991 16.83794,18.701657 24.02543,27.090666 41.16428,-4.905826 84.40375,-3.031007 127.28482,14.072978 C 279.79003,40.702271 201.97554,33.554281 169.77262,36.997833 154.03657,38.611764 145.8954,51.273965 159.52043,57.562035 Z"
             id="path2"
             style="fill:#fbbc05;fill-opacity:1"
             sodipodi:nodetypes="ccccc" /><path
             d="m 386.70223,417.53525 c 43.27533,-67.13677 60.32464,-138.52308 38.42893,-205.59913 -35.67763,-8.13427 -23.3734,-5.32484 -26.03482,-5.93508 -31.61595,-7.35976 -58.82721,-3.93004 -80.87773,10.19326 -39.38346,25.2249 -54.04756,77.92129 -58.56747,99.74175 l -4.54924,28.45097 c 31.69326,33.67999 69.15004,63.46622 110.83274,77.29196 4.95882,1.64394 8.3122,3.01179 12.93523,1.69252 3.24286,-0.92721 6.02019,-2.99788 7.83236,-5.83625 z M 351.65301,302.43833 c -9.98122,-8.84013 -10.38833,-23.42211 -2.12433,-32.75283 8.27727,-9.3457 22.80218,-10.676 32.76955,-1.84814 9.55451,8.46218 10.44005,23.06863 1.97788,32.62311 -8.46219,9.55447 -23.06861,10.44001 -32.6231,1.97786 z"
             id="path6"
             style="fill:#ff7948;fill-opacity:1;stroke:none"
             sodipodi:nodetypes="cccccccccccccc" /><path
             style="fill:#82afff;fill-opacity:1;stroke:none;stroke-width:1.00031px;stroke-linecap:butt;stroke-linejoin:miter;stroke-opacity:1"
             d="m 22.696794,348.88818 c 0,0 0.005,0.015 0.007,0.023 22.925,93.362 118.771996,151.82 122.840996,154.263 2.285,1.372 9.50435,3.19164 12.44335,3.19164 4.203,0 25.99665,-1.94064 44.31465,-23.51664 16.19,-19.069 20.798,-47.456 13.692,-84.37 -1.8,-9.361 -11.905,-14.776 -20.784,-10.889 -0.248,0.108 -25.139,10.836 -55.493,9.697 -36.467,-1.373 -65.663066,-10.73763 -84.957612,-52.57332 C 37.63234,307.57617 23.390931,243.33073 32.815741,214.98803 13.582846,260.86189 12.917794,309.02368 22.696794,348.88818 Z"
             id="path11545"
             sodipodi:nodetypes="ccssccccscc" /><path
             id="path35"
             style="fill:#eb2448;fill-opacity:1;stroke:none;stroke-width:1.00031px;stroke-linecap:butt;stroke-linejoin:miter;stroke-opacity:1"
             d="m 130.33023,111.79025 c 46.80204,-24.880876 102.34938,-21.818874 141.96726,-13.670853 39.61787,8.148023 112.74953,38.201943 148.29905,102.527043 -6.2614,-1.42775 -6.20367,-1.41524 -6.52156,-1.48428 -38.46266,-8.93201 -71.13024,-12.10206 -102.18585,7.78772 -52.69637,33.75263 -61.22472,98.06759 -63.21442,123.16439 -0.0345,0.45503 -0.0304,0.49892 -0.2483,6.75137 C 230.30966,317.75848 226.29945,290.73075 189.53992,269.0669 152.78038,247.40305 110.01476,258.86113 84.676166,282.88201 59.337574,306.90289 59.963613,335.66568 54.757613,344.71668 34.488108,303.34458 21.91185,243.93806 32.709283,215.17113 c 14.554866,-34.38082 50.818903,-78.5 97.620947,-103.38088 z"
             sodipodi:nodetypes="zzccccczzccz" /></g><ellipse
           style="display:inline;fill:none;fill-opacity:1;stroke:none;stroke-width:0.707746;stroke-miterlimit:4;stroke-dasharray:none;stroke-dashoffset:0;stroke-opacity:1"
           id="path36894"
           cx="362.26614"
           cy="263.28561"
           rx="13.578809"
           ry="13.506735" /></g><g
         id="layer2"
         inkscape:label="Material"
         style="display:none"><circle
           style="fill:none;fill-opacity:1;stroke:#0500ff;stroke-width:5;stroke-miterlimit:4;stroke-dasharray:5, 10;stroke-dashoffset:0;stroke-opacity:1"
           id="path3070"
           cx="256"
           cy="276.1055"
           r="217.50639" /><circle
           style="display:inline;fill:none;fill-opacity:1;stroke:#0500ff;stroke-width:1.02076;stroke-miterlimit:4;stroke-dasharray:none;stroke-dashoffset:0;stroke-opacity:1"
           id="path26725"
           cx="180.2756"
           cy="312.67023"
           r="81.783463" /><path
           style="display:inline;fill:none;stroke:#000000;stroke-width:1px;stroke-linecap:butt;stroke-linejoin:miter;stroke-opacity:1"
           d="M 98.082723,313.66421 266.72461,312.87892"
           id="path27089" /><path
           style="display:inline;fill:none;stroke:#000000;stroke-width:1px;stroke-linecap:butt;stroke-linejoin:miter;stroke-opacity:1"
           d="M 93.414196,171.0356 61.331382,243.93229"
           id="path31045"
           sodipodi:nodetypes="cc" /></g></g></g></svg>
